<svg width="1300" height="915" viewBox="0 0 1300 915" fill="none" xmlns="http://www.w3.org/2000/svg">
<g filter="url(#filter0_d_315_329)">
<path d="M56.3877 30.0549C273.145 -9.33514 408.445 -10.6433 625.273 29.9006C636.479 31.996 645.912 38.4988 651.965 47.4045C658.202 38.6521 667.759 32.359 679.01 30.5012C888.684 -4.1197 1023.08 -3.21044 1241.91 30.802C1262.23 33.9609 1277.2 51.5433 1277.2 72.1106V800.527C1277.2 826.256 1254.24 845.903 1228.76 842.333C1026.56 814.006 894.757 814.298 692.568 842.408C676.22 844.681 660.923 837.396 652.068 825.084C643.519 837.775 628.265 845.484 611.774 843.464C394.492 816.854 285.383 816.108 69.8135 843.245C44.597 846.419 22.1994 826.851 22.1992 801.436V71.1535C22.1992 51.0108 36.5696 33.6565 56.3877 30.0549Z" fill="#4192FF"/>
</g>
<path d="M45.1992 87.3309C45.1992 71.1197 56.6957 57.128 72.6224 54.1045C283.745 14.0251 413.496 15.2 624.581 54.2202C640.597 57.1807 652.199 71.2127 652.199 87.4995V786.645C652.199 807.542 633.481 823.468 612.806 820.431C410.871 790.777 283.22 791.646 84.5015 820.524C63.8545 823.524 45.1992 807.606 45.1992 786.742V87.3309Z" fill="url(#paint0_linear_315_329)"/>
<path d="M679.472 54.6685C883.134 21.1505 1012.7 20.7599 1229.65 54.8496C1246.09 57.433 1258.2 71.6589 1258.2 88.3017V786.122C1258.2 807.196 1239.28 823.278 1218.45 820.123C1159.44 811.188 1047.03 795.949 966.699 795.949C877.811 795.949 753.285 811.773 690.578 820.625C669.879 823.547 651.199 807.529 651.199 786.625V88.0623C651.199 71.5251 663.154 57.354 679.472 54.6685Z" fill="url(#paint1_linear_315_329)"/>
<defs>
<filter id="filter0_d_315_329" x="-0.000782013" y="0" width="1299.4" height="914.984" filterUnits="userSpaceOnUse" color-interpolation-filters="sRGB">
<feFlood flood-opacity="0" result="BackgroundImageFix"/>
<feColorMatrix in="SourceAlpha" type="matrix" values="0 0 0 0 0 0 0 0 0 0 0 0 0 0 0 0 0 0 127 0" result="hardAlpha"/>
<feOffset dy="49"/>
<feGaussianBlur stdDeviation="11.1"/>
<feComposite in2="hardAlpha" operator="out"/>
<feColorMatrix type="matrix" values="0 0 0 0 0 0 0 0 0 0 0 0 0 0 0 0 0 0 0.15 0"/>
<feBlend mode="normal" in2="BackgroundImageFix" result="effect1_dropShadow_315_329"/>
<feBlend mode="normal" in="SourceGraphic" in2="effect1_dropShadow_315_329" result="shape"/>
</filter>
<linearGradient id="paint0_linear_315_329" x1="45.1992" y1="442.949" x2="652.199" y2="442.949" gradientUnits="userSpaceOnUse">
<stop offset="0.859625" stop-color="white"/>
<stop offset="0.929812" stop-color="#FDFDFD"/>
<stop offset="1" stop-color="#E8E8E8"/>
</linearGradient>
<linearGradient id="paint1_linear_315_329" x1="1258.2" y1="442.949" x2="651.199" y2="442.949" gradientUnits="userSpaceOnUse">
<stop offset="0.859625" stop-color="white"/>
<stop offset="0.929812" stop-color="#FDFDFD"/>
<stop offset="1" stop-color="#E8E8E8"/>
</linearGradient>
</defs>
</svg>
