<svg width="448" height="191" viewBox="0 0 448 191" fill="none" xmlns="http://www.w3.org/2000/svg">
<g filter="url(#filter0_d_308_253)">
<path d="M425 0C435.493 4.38095e-06 444 8.50659 444 19V164C444 174.493 435.493 183 425 183H318.583C317.811 181.234 316.05 180 314 180C311.95 180 310.189 181.234 309.417 183H23C12.5066 183 4 174.493 4 164V19C4 8.50659 12.5066 0 23 0H309.417C310.189 1.76572 311.95 3 314 3C316.05 3 317.811 1.76572 318.583 0H425ZM314 163C311.239 163 309 165.239 309 168C309 170.761 311.239 173 314 173C316.761 173 319 170.761 319 168C319 165.239 316.761 163 314 163ZM314 146C311.239 146 309 148.239 309 151C309 153.761 311.239 156 314 156C316.761 156 319 153.761 319 151C319 148.239 316.761 146 314 146ZM314 129C311.239 129 309 131.239 309 134C309 136.761 311.239 139 314 139C316.761 139 319 136.761 319 134C319 131.239 316.761 129 314 129ZM314 112C311.239 112 309 114.239 309 117C309 119.761 311.239 122 314 122C316.761 122 319 119.761 319 117C319 114.239 316.761 112 314 112ZM314 95C311.239 95 309 97.2386 309 100C309 102.761 311.239 105 314 105C316.761 105 319 102.761 319 100C319 97.2386 316.761 95 314 95ZM314 78C311.239 78 309 80.2386 309 83C309 85.7614 311.239 88 314 88C316.761 88 319 85.7614 319 83C319 80.2386 316.761 78 314 78ZM314 61C311.239 61 309 63.2386 309 66C309 68.7614 311.239 71 314 71C316.761 71 319 68.7614 319 66C319 63.2386 316.761 61 314 61ZM314 44C311.239 44 309 46.2386 309 49C309 51.7614 311.239 54 314 54C316.761 54 319 51.7614 319 49C319 46.2386 316.761 44 314 44ZM314 27C311.239 27 309 29.2386 309 32C309 34.7614 311.239 37 314 37C316.761 37 319 34.7614 319 32C319 29.2386 316.761 27 314 27ZM314 10C311.239 10 309 12.2386 309 15C309 17.7614 311.239 20 314 20C316.761 20 319 17.7614 319 15C319 12.2386 316.761 10 314 10Z" fill="#EEF8FE"/>
<path fill-rule="evenodd" clip-rule="evenodd" d="M309.417 0C310.189 1.76572 311.95 3 314 3C316.05 3 317.811 1.76572 318.583 0H425C435.493 4.38095e-06 444 8.50659 444 19V37H4V19C4 8.50659 12.5066 0 23 0H309.417ZM314 27C311.239 27 309 29.2386 309 32C309 34.7614 311.239 37 314 37C316.761 37 319 34.7614 319 32C319 29.2386 316.761 27 314 27ZM314 10C311.239 10 309 12.2386 309 15C309 17.7614 311.239 20 314 20C316.761 20 319 17.7614 319 15C319 12.2386 316.761 10 314 10Z" fill="#4192FF"/>
</g>
<rect x="29" y="53" width="29" height="3" fill="#073450"/>
<rect x="29" y="66" width="29" height="3" fill="#073450"/>
<rect x="29" y="70" width="29" height="5" fill="#073450"/>
<rect x="29" y="79" width="29" height="3" fill="#073450"/>
<rect x="29" y="86" width="29" height="3" fill="#073450"/>
<rect x="29" y="90" width="29" height="3" fill="#073450"/>
<rect x="29" y="94" width="29" height="5" fill="#073450"/>
<rect x="29" y="107" width="29" height="7" fill="#073450"/>
<rect x="29" y="102" width="29" height="3" fill="#073450"/>
<rect x="29" y="118" width="29" height="3" fill="#073450"/>
<rect x="29" y="135" width="29" height="3" fill="#073450"/>
<rect x="29" y="151" width="29" height="3" fill="#073450"/>
<rect x="29" y="155" width="29" height="5" fill="#073450"/>
<rect x="29" y="122" width="29" height="4" fill="#073450"/>
<rect x="29" y="127" width="29" height="7" fill="#073450"/>
<rect x="29" y="141" width="29" height="7" fill="#073450"/>
<rect x="29" y="60" width="29" height="4" fill="#073450"/>
<rect x="336" y="166.579" width="23.5794" height="2.43925" transform="rotate(-90 336 166.579)" fill="#073450"/>
<rect x="346.57" y="166.579" width="23.5794" height="2.43925" transform="rotate(-90 346.57 166.579)" fill="#073450"/>
<rect x="349.822" y="166.579" width="23.5794" height="4.06542" transform="rotate(-90 349.822 166.579)" fill="#073450"/>
<rect x="357.141" y="166.579" width="23.5794" height="2.43925" transform="rotate(-90 357.141 166.579)" fill="#073450"/>
<rect x="362.832" y="166.579" width="23.5794" height="2.43925" transform="rotate(-90 362.832 166.579)" fill="#073450"/>
<rect x="366.084" y="166.579" width="23.5794" height="2.43925" transform="rotate(-90 366.084 166.579)" fill="#073450"/>
<rect x="369.336" y="166.579" width="23.5794" height="4.06542" transform="rotate(-90 369.336 166.579)" fill="#073450"/>
<rect x="379.906" y="166.579" width="23.5794" height="5.69159" transform="rotate(-90 379.906 166.579)" fill="#073450"/>
<rect x="375.842" y="166.579" width="23.5794" height="2.43925" transform="rotate(-90 375.842 166.579)" fill="#073450"/>
<rect x="388.85" y="166.579" width="23.5794" height="2.43925" transform="rotate(-90 388.85 166.579)" fill="#073450"/>
<rect x="402.674" y="166.579" width="23.5794" height="2.43925" transform="rotate(-90 402.674 166.579)" fill="#073450"/>
<rect x="415.682" y="166.579" width="23.5794" height="2.43925" transform="rotate(-90 415.682 166.579)" fill="#073450"/>
<rect x="418.936" y="166.579" width="23.5794" height="4.06542" transform="rotate(-90 418.936 166.579)" fill="#073450"/>
<rect x="392.104" y="166.579" width="23.5794" height="3.25234" transform="rotate(-90 392.104 166.579)" fill="#073450"/>
<rect x="396.168" y="166.579" width="23.5794" height="5.69159" transform="rotate(-90 396.168 166.579)" fill="#073450"/>
<rect x="407.551" y="166.579" width="23.5794" height="5.69159" transform="rotate(-90 407.551 166.579)" fill="#073450"/>
<rect x="341.691" y="166.579" width="23.5794" height="3.25234" transform="rotate(-90 341.691 166.579)" fill="#073450"/>
<rect x="83" y="55" width="53" height="17" fill="#DCE8F3"/>
<rect x="156" y="55" width="53" height="17" fill="#DCE8F3"/>
<rect x="229" y="55" width="53" height="17" fill="#DCE8F3"/>
<rect x="83" y="91" width="34" height="9" fill="#DCE8F3"/>
<rect x="83" y="135" width="34" height="9" fill="#DCE8F3"/>
<rect x="231" y="107" width="34" height="9" fill="#DCE8F3"/>
<rect x="337" y="55" width="34" height="9" fill="#DCE8F3"/>
<rect x="83" y="107" width="70" height="9" fill="#DCE8F3"/>
<rect x="83" y="151" width="70" height="9" fill="#DCE8F3"/>
<rect x="231" y="123" width="51" height="10" fill="#DCE8F3"/>
<rect x="337" y="71" width="44" height="10" fill="#DCE8F3"/>
<path d="M396 55H405V64H396V55Z" stroke="#072C50" stroke-width="3"/>
<path d="M410 55H419V64H410V55Z" stroke="#072C50" stroke-width="3"/>
<path d="M396 70H405V79H396V70Z" stroke="#072C50" stroke-width="3"/>
<rect x="409" y="68" width="4" height="4" fill="#072C50"/>
<rect x="417" y="68" width="4" height="4" fill="#072C50"/>
<rect x="413" y="72" width="4" height="4" fill="#072C50"/>
<rect x="409" y="76" width="4" height="4" fill="#072C50"/>
<rect x="417" y="76" width="4" height="4" fill="#072C50"/>
<path d="M200.559 111.91C201.149 112.5 201.149 113.45 200.559 114.03L196.669 117.92L198.789 127.11L197.379 128.53L193.499 121.1L189.599 125L189.959 127.47L188.889 128.53L187.129 125.35L183.939 123.58L184.999 122.5L187.499 122.87L191.369 119L183.939 115.09L185.359 113.68L194.549 115.8L198.439 111.91C198.999 111.33 199.999 111.33 200.559 111.91Z" fill="black"/>
<path d="M418.559 103.91C419.149 104.5 419.149 105.45 418.559 106.03L414.669 109.92L416.789 119.11L415.379 120.53L411.499 113.1L407.599 117L407.959 119.47L406.889 120.53L405.129 117.35L401.939 115.58L402.999 114.5L405.499 114.87L409.369 111L401.939 107.09L403.359 105.68L412.549 107.8L416.439 103.91C416.999 103.33 417.999 103.33 418.559 103.91Z" fill="black"/>
<defs>
<filter id="filter0_d_308_253" x="0" y="0" width="448" height="191" filterUnits="userSpaceOnUse" color-interpolation-filters="sRGB">
<feFlood flood-opacity="0" result="BackgroundImageFix"/>
<feColorMatrix in="SourceAlpha" type="matrix" values="0 0 0 0 0 0 0 0 0 0 0 0 0 0 0 0 0 0 127 0" result="hardAlpha"/>
<feOffset dy="4"/>
<feGaussianBlur stdDeviation="2"/>
<feComposite in2="hardAlpha" operator="out"/>
<feColorMatrix type="matrix" values="0 0 0 0 0 0 0 0 0 0 0 0 0 0 0 0 0 0 0.25 0"/>
<feBlend mode="normal" in2="BackgroundImageFix" result="effect1_dropShadow_308_253"/>
<feBlend mode="normal" in="SourceGraphic" in2="effect1_dropShadow_308_253" result="shape"/>
</filter>
</defs>
</svg>
