<svg width="481" height="699" viewBox="0 0 481 699" fill="none" xmlns="http://www.w3.org/2000/svg">
<path d="M270 28.0636L303.603 40.7583L320.502 32.738C315.995 31.1342 305.718 27.3715 300.666 25.1513C294.35 22.376 288.327 22.3662 285.018 22.6077C282.372 22.8008 273.903 26.3255 270 28.0636Z" fill="white"/>
<path d="M293 36.1502L270 28.4484C273.893 26.6882 282.342 23.1156 284.987 22.9075C288.294 22.6473 292.528 21.9993 303.116 26.0599" stroke="#4192FF" stroke-width="1.5" stroke-linecap="round" stroke-linejoin="round"/>
<path d="M254.135 70.6754C251.963 75.2096 249.971 81.5155 247 82.6501L237.751 86.4828L247.888 60.7272L228 47.15L237.751 44.15L253.5 51.1501L315.382 27.7399C318.674 26.0488 326.689 23.5816 332.413 27.2425C340.835 26.2281 342.45 28.8685 343.778 31.3114C345.275 34.0636 344.41 39.7804 336.217 42.7091C329.664 45.0521 316.597 50.7235 309.528 53.3034L298.773 57.5311L267.5 68.1501" stroke="#4192FF" stroke-width="1.5" stroke-linecap="round" stroke-linejoin="round"/>
<path d="M319.406 32.1298L332.055 27.4991" stroke="#4192FF" stroke-width="1.5" stroke-linecap="round" stroke-linejoin="round"/>
<path d="M257.226 64.0886L337.281 35.4148" stroke="#4192FF" stroke-width="1.5" stroke-linecap="round" stroke-linejoin="round"/>
<path d="M286.622 79.1916L300.499 46.0591L317.94 39.2976C316.007 43.6735 311.676 53.7241 309.816 58.9198C307.491 65.4144 303.358 69.7963 300.908 72.0333C298.949 73.823 290.568 77.5512 286.622 79.1916Z" fill="white"/>
<path d="M301.172 45.2012L287.296 78.3337C291.241 76.6933 299.622 72.9651 301.582 71.1754C304.031 68.9383 308.164 64.5564 310.489 58.0618C312.349 52.8662 316.68 42.8156 318.613 38.4397" stroke="#4192FF" stroke-width="1.5" stroke-linecap="round" stroke-linejoin="round"/>
<path d="M116.693 95.5675C127.393 98.4517 151.474 100.42 162.198 85.2191C175.602 66.2181 200.051 68.9106 208.604 70.439C220.187 72.5089 226.863 68.4909 231.887 66.0986" stroke="#4192FF" stroke-width="1.5" stroke-dasharray="4.07 4.07"/>
<path d="M18.264 146.534H3.61198V131.378H18.696V133.322H5.80798V144.662H18.66C22.08 144.662 24.78 144.086 26.616 142.718V130.982H28.812V138.65H33.852V140.558H28.812V149.126H26.616V144.554C24.852 145.994 21.972 146.534 18.264 146.534ZM5.12398 157.226C5.12398 155.426 5.98798 154.022 7.49998 152.942C9.65998 151.43 13.152 150.71 17.4 150.71C21.648 150.71 25.14 151.43 27.3 152.942C28.812 154.022 29.64 155.426 29.64 157.226C29.64 159.026 28.812 160.43 27.3 161.474C25.14 163.022 21.648 163.706 17.4 163.706C13.152 163.706 9.65998 163.022 7.49998 161.474C5.98798 160.43 5.12398 159.026 5.12398 157.226ZM7.31998 157.226C7.31998 158.342 7.89598 159.314 9.01198 160.07C10.668 161.222 13.584 161.834 17.4 161.834C21.18 161.834 24.096 161.222 25.788 160.07C26.904 159.314 27.444 158.342 27.444 157.226C27.444 156.11 26.904 155.102 25.788 154.346C24.096 153.23 21.18 152.582 17.4 152.582C13.584 152.582 10.668 153.23 9.01198 154.346C7.89598 155.102 7.31998 156.11 7.31998 157.226ZM47.4586 131.198V137.066C47.4586 142.538 51.3106 145.85 55.3786 147.146V149.162C51.1306 147.938 47.6746 145.094 46.3426 141.926C45.2266 145.13 41.8426 148.226 37.3066 149.558V147.542C41.5546 146.138 45.2626 142.466 45.2626 137.066V131.198H47.4586ZM64.2706 153.158H62.0746V130.982H64.2706V153.158ZM64.9186 163.058H40.6906V152.942H42.8866V161.15H64.9186V163.058ZM73.5932 140.954C73.5932 137.57 74.5292 134.906 76.4732 133.178C77.8772 131.918 79.8572 131.162 82.1612 131.162C84.4652 131.162 86.4452 131.918 87.8852 133.178C89.7932 134.906 90.8012 137.57 90.8012 140.954C90.8012 144.266 89.7932 146.966 87.8852 148.694C86.4452 149.954 84.4652 150.674 82.1612 150.674C79.8572 150.674 77.8772 149.954 76.4732 148.694C74.5292 146.966 73.5932 144.266 73.5932 140.954ZM75.7892 140.954C75.7892 143.618 76.4732 145.886 77.8772 147.218C78.9572 148.19 80.3972 148.766 82.1612 148.766C83.9252 148.766 85.4012 148.19 86.4452 147.218C87.8852 145.886 88.6052 143.618 88.6052 140.954C88.6052 138.254 87.8852 136.022 86.4452 134.69C85.4012 133.646 83.9252 133.142 82.1612 133.142C80.3972 133.142 78.9572 133.646 77.8772 134.69C76.4732 136.022 75.7892 138.254 75.7892 140.954ZM98.6852 162.878H96.4892V158.702C94.6172 160.358 91.2692 160.97 87.2372 160.97H72.3692V159.134H87.9572C91.1972 159.134 94.5452 158.486 96.4892 156.83V130.982H98.6852V162.878ZM130.654 146.066C130.654 140.882 130.294 137.102 128.926 135.374C128.278 134.474 127.27 134.006 126.082 134.006C124.93 134.006 123.922 134.474 123.238 135.374C121.942 137.102 121.546 140.882 121.546 146.066C121.546 151.25 121.942 155.03 123.238 156.794C123.922 157.622 124.93 158.09 126.082 158.09C127.27 158.09 128.278 157.622 128.926 156.794C130.294 155.03 130.654 151.25 130.654 146.066ZM117.658 146.066C117.658 140.162 118.234 135.734 120.322 133.178C121.654 131.522 123.67 130.622 126.082 130.622C128.53 130.622 130.51 131.522 131.878 133.178C132.85 134.33 133.462 135.914 133.894 137.822H140.194V130.622H144.118V163.274H140.194V153.518H134.038C133.642 155.786 132.958 157.622 131.878 158.954C130.51 160.61 128.53 161.438 126.082 161.438C123.67 161.438 121.654 160.61 120.322 158.954C118.234 156.398 117.658 151.97 117.658 146.066ZM134.362 141.242C134.506 142.718 134.542 144.338 134.542 146.066C134.542 147.506 134.506 148.874 134.434 150.134H140.194V141.242H134.362ZM165.933 137.462V134.438H152.793V131.018H169.821V137.282C169.821 138.722 169.677 140.414 169.389 141.602H165.501C165.789 140.414 165.933 138.794 165.933 137.462ZM178.749 155.102H174.825V152.042H167.697V148.946H174.825V130.622H178.749V155.102ZM161.973 146.498V152.618H158.049V146.498H151.209V143.222H166.041C168.669 143.222 170.973 143.114 172.773 142.61V145.742C171.117 146.282 168.741 146.498 166.149 146.498H161.973ZM179.325 163.598H154.341V153.842H158.265V160.214H179.325V163.598ZM201.247 146.066C201.247 140.45 200.635 136.418 198.835 134.402C197.971 133.43 196.783 132.89 195.307 132.89C193.867 132.89 192.679 133.43 191.779 134.402C190.015 136.418 189.403 140.45 189.403 146.066C189.403 151.718 190.015 155.786 191.779 157.802C192.679 158.738 193.867 159.242 195.307 159.242C196.783 159.242 197.971 158.738 198.835 157.802C200.635 155.786 201.247 151.718 201.247 146.066ZM187.207 146.066C187.207 139.946 187.963 135.482 190.195 133.07C191.419 131.702 193.183 130.982 195.307 130.982C197.431 130.982 199.159 131.702 200.419 133.07C202.687 135.482 203.443 139.946 203.443 146.066C203.443 152.186 202.687 156.686 200.419 159.098C199.159 160.502 197.431 161.078 195.307 161.078C193.183 161.078 191.419 160.502 190.195 159.098C187.963 156.686 187.207 152.186 187.207 146.066ZM210.571 162.842V130.982H212.767V162.842H210.571ZM233.936 136.382H244.664V131.414H246.86V145.67H231.776V131.414H233.936V136.382ZM244.664 143.798V138.218H233.936V143.798H244.664ZM256.976 130.982V137.786H262.016V139.766H256.976V146.642H254.78V130.982H256.976ZM235.916 157.334V161.474H257.408V163.274H233.72V155.498H254.78V151.322H233.72V149.522H256.976V157.334H235.916ZM290.059 136.742V133.358H267.667V131.414H292.255V136.67C292.255 138.398 292.075 140.594 291.643 142.142H289.483C289.915 140.558 290.059 138.434 290.059 136.742ZM265.687 146.786V144.842H294.451V146.786H265.687ZM267.919 150.494H270.115V154.778H290.023V150.494H292.219V163.274H267.919V150.494ZM290.023 161.438V156.686H270.115V161.438H290.023ZM317.849 133.538H304.241V147.11H318.245V149.054H311.225V159.134H316.121C319.469 159.134 322.601 158.558 324.653 156.866V130.982H326.849V162.878H324.653V158.702C322.781 160.322 319.397 160.97 315.401 160.97H300.533V159.134H309.029V149.054H302.045V131.594H317.849V133.538ZM335.452 138.938C335.452 136.202 336.352 134.114 337.972 132.71C339.34 131.45 341.356 130.802 343.696 130.802C346 130.802 347.98 131.45 349.384 132.71C350.824 133.934 351.688 135.734 351.868 138.002H359.356V130.982H361.552V148.802H359.356V139.874H351.868C351.688 142.178 350.824 144.014 349.384 145.238C347.98 146.462 346 147.146 343.696 147.146C341.356 147.146 339.34 146.462 337.972 145.238C336.352 143.834 335.452 141.674 335.452 138.938ZM337.612 138.938C337.612 140.99 338.26 142.61 339.376 143.69C340.42 144.662 341.896 145.238 343.696 145.238C345.424 145.238 346.936 144.662 347.98 143.69C349.132 142.61 349.744 140.99 349.744 138.938C349.744 136.958 349.132 135.338 347.98 134.258C346.936 133.214 345.424 132.71 343.696 132.71C341.896 132.71 340.42 133.214 339.376 134.258C338.26 135.338 337.612 136.958 337.612 138.938ZM349.888 163.31C347.296 162.194 344.704 159.71 343.66 157.37C342.616 159.71 339.664 162.266 336.316 163.31V161.366C339.376 160.25 342.508 157.01 342.508 153.014V151.394H344.704V152.978C344.704 156.578 347.296 159.782 349.852 161.222C352.48 159.782 355.108 156.578 355.108 152.978V151.394H357.304V153.014C357.304 157.01 360.292 160.178 363.532 161.366V163.31C360.184 162.266 357.232 159.746 356.152 157.37C355.144 159.71 352.624 162.05 349.888 163.31ZM383.69 135.878C381.494 139.082 376.13 141.35 370.298 142.07V140.054C376.022 139.37 382.61 136.562 382.61 132.062V131.162H384.806V132.062C384.806 136.562 391.106 139.262 397.154 140.054V142.07C391.106 141.314 385.958 139.046 383.69 135.878ZM369.362 147.578V145.706H398.126V147.578H369.362ZM371.594 151.178H373.79V154.994H393.698V151.178H395.894V163.274H371.594V151.178ZM393.698 161.438V156.866H373.79V161.438H393.698ZM418.933 160.646H405.325V131.378H407.521V158.738H419.293C422.965 158.738 426.313 157.658 428.329 155.75V130.982H430.525V162.842H428.329V157.586C426.457 159.566 422.929 160.646 418.933 160.646ZM453.312 160.646H439.596V131.558H454.464V133.538H441.792V158.738H453.6C457.128 158.738 460.296 157.73 462.132 155.966V130.982H464.328V144.698H469.692V146.57H464.328V162.878H462.132V157.838C460.44 159.674 457.02 160.646 453.312 160.646ZM476.494 152.87H474.586L474.406 137.93V133.034H476.71V137.93L476.494 152.87ZM476.746 157.37V161.006H474.334V157.37H476.746ZM53.1345 189.066C53.1345 183.882 52.7745 180.102 51.4065 178.374C50.7585 177.474 49.7505 177.006 48.5625 177.006C47.4105 177.006 46.4025 177.474 45.7185 178.374C44.4225 180.102 44.0265 183.882 44.0265 189.066C44.0265 194.25 44.4225 198.03 45.7185 199.794C46.4025 200.622 47.4105 201.09 48.5625 201.09C49.7505 201.09 50.7585 200.622 51.4065 199.794C52.7745 198.03 53.1345 194.25 53.1345 189.066ZM40.1385 189.066C40.1385 183.162 40.7145 178.734 42.8025 176.178C44.1345 174.522 46.1505 173.622 48.5625 173.622C51.0105 173.622 52.9905 174.522 54.3585 176.178C55.3305 177.33 55.9425 178.914 56.3745 180.822H62.6745V173.622H66.5985V206.274H62.6745V196.518H56.5185C56.1225 198.786 55.4385 200.622 54.3585 201.954C52.9905 203.61 51.0105 204.438 48.5625 204.438C46.1505 204.438 44.1345 203.61 42.8025 201.954C40.7145 199.398 40.1385 194.97 40.1385 189.066ZM56.8425 184.242C56.9865 185.718 57.0225 187.338 57.0225 189.066C57.0225 190.506 56.9865 191.874 56.9145 193.134H62.6745V184.242H56.8425ZM88.6291 178.986H74.0491V175.818H79.5211V172.686H83.3731V175.818H88.6291V178.986ZM78.2611 186.798C78.2611 187.806 78.6931 188.67 79.3411 189.21C79.8811 189.642 80.6371 189.894 81.3931 189.894C82.1851 189.894 82.8691 189.642 83.4091 189.21C84.0931 188.67 84.5251 187.77 84.5251 186.798C84.5251 185.79 84.0931 184.962 83.4091 184.422C82.8691 183.99 82.1851 183.774 81.3931 183.774C80.6011 183.774 79.8451 184.026 79.3051 184.494C78.6571 185.034 78.2611 185.826 78.2611 186.798ZM74.6611 186.798C74.6611 184.89 75.4171 183.234 76.8211 182.154C77.9731 181.218 79.5571 180.678 81.3931 180.678C83.1571 180.678 84.7051 181.182 85.8571 182.082C87.2971 183.162 88.1251 184.818 88.1251 186.798C88.1251 188.922 87.2251 190.65 85.6411 191.73C84.5251 192.522 83.0491 192.918 81.3931 192.918C79.7011 192.918 78.2251 192.486 77.1091 191.694C75.5971 190.614 74.6611 188.922 74.6611 186.798ZM101.697 193.494H97.9171V185.07H94.3171V192.918H90.6091V173.838H94.3171V181.65H97.9171V173.622H101.697V193.494ZM76.3891 200.91C76.3891 198.93 77.3611 197.562 79.0531 196.59C81.3931 195.258 85.1011 194.754 89.3851 194.754C93.6331 194.754 97.3771 195.258 99.7171 196.59C101.373 197.562 102.345 198.93 102.345 200.91C102.345 202.854 101.373 204.258 99.7171 205.23C97.3771 206.562 93.6331 207.03 89.3851 207.03C85.1011 207.03 81.3931 206.562 79.0531 205.23C77.3611 204.258 76.3891 202.854 76.3891 200.91ZM80.2771 200.91C80.2771 201.594 80.7091 202.134 81.4651 202.566C82.9771 203.394 85.8211 203.754 89.3851 203.754C92.9491 203.754 95.7931 203.394 97.2691 202.566C98.0251 202.134 98.4571 201.594 98.4571 200.91C98.4571 200.226 98.0251 199.686 97.2691 199.218C95.7931 198.39 92.9491 198.066 89.3851 198.066C85.8211 198.066 82.9771 198.39 81.4651 199.218C80.7091 199.686 80.2771 200.226 80.2771 200.91ZM110.264 178.878C110.264 177.582 110.768 176.646 111.848 175.854C113.756 174.558 117.428 173.982 123.08 173.982C128.732 173.982 132.404 174.558 134.276 175.854C135.392 176.646 135.896 177.582 135.896 178.878C135.896 180.102 135.392 181.074 134.276 181.83C132.404 183.162 128.732 183.738 123.08 183.738C117.428 183.738 113.756 183.162 111.848 181.83C110.768 181.074 110.264 180.102 110.264 178.878ZM112.46 178.878C112.46 179.526 112.748 180.102 113.432 180.534C114.836 181.506 117.968 181.902 123.08 181.902C128.192 181.902 131.324 181.506 132.764 180.534C133.412 180.102 133.7 179.526 133.7 178.878C133.7 178.194 133.412 177.582 132.764 177.15C131.324 176.214 128.192 175.782 123.08 175.782C117.968 175.782 114.836 176.214 113.432 177.15C112.748 177.582 112.46 178.194 112.46 178.878ZM108.644 189.21V187.338H137.408V189.21H108.644ZM113.072 200.694V204.474H136.004V206.274H110.876V198.894H132.98V195.042H110.876V193.242H135.176V200.694H113.072ZM166.029 176.538V201.738H168.189C171.069 201.738 173.985 201.45 175.785 200.478V202.314C174.021 203.322 171.069 203.646 168.117 203.646H154.581V174.558H172.905V176.538H166.029ZM163.905 201.738V176.538H156.777V201.738H163.905ZM178.413 187.374V173.982H180.609V205.878H178.413V189.282H171.105V187.374H178.413ZM202.495 203.646H189.283V174.378H191.479V201.738H202.747C206.455 201.738 209.803 200.658 211.819 198.75V173.982H214.015V187.698H219.379V189.57H214.015V205.878H211.819V200.586C209.983 202.566 206.383 203.646 202.495 203.646ZM234.966 203.646H224.13V187.986H235.578V176.538H224.13V174.558H237.738V189.966H226.326V201.738H235.002C237.882 201.738 240.798 201.45 242.634 200.478V202.314C240.834 203.322 237.882 203.646 234.966 203.646ZM249.33 173.982V205.878H247.134V189.498H239.97V187.554H247.134V173.982H249.33ZM281.731 181.29V176.574H268.807V174.594H283.891V181.074C283.891 193.314 278.887 201.126 268.555 203.826V201.846C277.303 199.29 281.731 192.27 281.731 181.29ZM293.539 173.982V187.698H298.903V189.57H293.539V205.878H291.343V173.982H293.539ZM304.481 174.414H306.677V177.546H326.585V174.414H328.781V184.818H317.693V188.49H331.013V190.326H302.249V188.49H315.497V184.818H304.481V174.414ZM326.585 183.018V179.346H306.677V183.018H326.585ZM306.677 201.018V204.51H329.609V206.274H304.481V199.254H326.585V195.654H304.481V193.89H328.781V201.018H306.677ZM362.98 173.982V187.698H368.128V189.57H362.98V205.878H360.784V173.982H362.98ZM354.628 174.594V189.786C354.628 198.138 351.964 203.07 346.6 205.23V203.178C350.272 201.414 352.432 197.238 352.432 189.642V176.574H346.096V188.202C346.096 196.734 342.784 201.522 337.456 203.502V201.45C341.128 199.794 343.9 195.87 343.9 188.022V176.574H337.636V174.594H354.628ZM372.59 183.522C372.59 180.786 373.67 178.59 375.614 177.006C377.882 175.134 381.374 174.198 385.766 174.198C390.158 174.198 393.65 175.134 395.918 177.006C397.862 178.59 398.942 180.786 398.942 183.522C398.942 186.258 397.862 188.454 395.918 190.038C395.126 190.722 394.154 191.262 393.038 191.694V202.566H399.95V204.402H371.546V202.566H378.638V191.766C377.486 191.334 376.442 190.758 375.614 190.038C373.67 188.454 372.59 186.258 372.59 183.522ZM390.842 192.378C389.33 192.702 387.638 192.882 385.766 192.882C383.966 192.882 382.31 192.738 380.834 192.414V202.566H390.842V192.378ZM374.786 183.522C374.786 185.646 375.65 187.302 377.126 188.562C379.034 190.146 382.022 190.938 385.766 190.938C389.51 190.938 392.498 190.146 394.442 188.562C395.918 187.302 396.746 185.646 396.746 183.522C396.746 181.434 395.918 179.742 394.442 178.482C392.498 176.898 389.51 176.142 385.766 176.142C382.022 176.142 379.034 176.898 377.126 178.482C375.65 179.742 374.786 181.434 374.786 183.522ZM416.869 194.034C412.765 194.034 412.693 189.786 410.065 189.786C408.553 189.786 407.725 191.046 407.689 193.782H405.637C405.637 190.074 407.185 187.914 410.029 187.914C414.133 187.914 414.169 192.162 416.797 192.162C418.309 192.162 419.137 190.902 419.173 188.13H421.261C421.225 191.874 419.713 194.034 416.869 194.034ZM441.785 183.27C441.785 186.294 440.921 188.058 438.257 190.29C435.377 192.702 434.909 193.818 434.909 195.942V196.77H432.677V195.798C432.677 193.098 433.325 191.838 436.493 189.138C438.833 187.122 439.589 185.718 439.589 183.342C439.589 179.85 437.465 177.546 433.973 177.546C430.445 177.546 428.393 180.03 428.393 183.378H426.161V183.27C426.161 178.95 428.825 175.566 433.973 175.566C439.085 175.566 441.785 178.95 441.785 183.27ZM434.981 200.37V204.006H432.569V200.37H434.981Z" fill="#4192FF"/>
<path d="M91.5409 360.073C91.2427 358.573 92.217 357.116 93.7171 356.818L321.192 311.599C331.193 309.611 340.911 316.107 342.899 326.107L403.549 631.214C405.537 641.214 399.042 650.933 389.042 652.921L175.524 695.365C166.315 697.195 157.366 691.214 155.536 682.005L91.5409 360.073Z" fill="#265BA3"/>
<path d="M89.5399 360.074C89.2417 358.573 90.216 357.116 91.7161 356.818L316.219 312.19C326.219 310.202 335.938 316.697 337.926 326.698L397.764 627.719C399.752 637.719 393.256 647.438 383.256 649.425L172.711 691.278C163.502 693.109 154.553 687.128 152.722 677.919L89.5399 360.074Z" fill="#DFEDFF"/>
<path d="M89.5399 348.689C89.2417 347.189 90.216 345.731 91.7161 345.433L307.192 302.6C317.193 300.612 326.911 307.107 328.899 317.107L389.549 622.215C391.537 632.215 385.042 641.933 375.042 643.921L159.565 686.754C158.065 687.053 156.607 686.078 156.309 684.578L89.5399 348.689Z" fill="#2D68B5"/>
<path d="M131.289 413.165L131.146 412.448L133.026 409.804L129.709 393.117L126.961 391.393L126.818 390.676L134.869 389.076L138.763 408.664L141.609 410.368L141.751 411.085L131.289 413.165ZM138.88 402.949L134.056 403.908L133.681 402.017L138.57 401.045C140.004 400.76 141.039 400.058 141.674 398.937C142.327 397.791 142.494 396.414 142.174 394.806C141.868 393.263 141.202 392.131 140.178 391.408C139.17 390.66 137.95 390.428 136.516 390.713L132.181 391.575L131.805 389.685L138.226 388.408C139.986 388.058 141.583 388.023 143.016 388.303C144.45 388.583 145.635 389.149 146.572 390.002C147.506 390.833 148.104 391.911 148.367 393.236C148.691 394.866 148.553 396.328 147.952 397.622C147.351 398.916 146.291 400.007 144.774 400.896C143.257 401.785 141.292 402.469 138.88 402.949ZM149.444 409.556L149.302 408.839L151.228 405.576L150.175 408.97L155.566 384.961L159.217 384.236L173.381 404.357L171.077 401.631L174.138 403.902L174.28 404.619L163.981 406.667L163.838 405.95L166.534 402.635L167.417 405.543L155.133 388.063L156.273 387.836L154.673 408.076L153.992 405.162L157.776 407.155L157.918 407.872L149.444 409.556ZM153.754 401.923L153.379 400.033L165.797 397.564L166.172 399.455L153.754 401.923ZM155.549 388.624L152.417 386.333L152.275 385.616L156.381 384.799L155.549 388.624ZM184.057 403.218C183.014 403.425 181.973 403.53 180.935 403.533C179.901 403.558 178.869 403.481 177.84 403.302C176.81 403.122 175.822 402.867 174.875 402.536L176.152 397.369L176.967 397.207L182.937 402.017L178.929 402.814L178.3 399.653C178.782 400.257 179.552 400.669 180.612 400.887C181.668 401.084 182.804 401.061 184.021 400.819C185.324 400.56 186.268 400.079 186.851 399.376C187.451 398.647 187.646 397.75 187.434 396.685C187.257 395.794 186.675 395.142 185.69 394.728C184.726 394.31 183.16 393.989 180.992 393.764C179.189 393.558 177.706 393.254 176.542 392.853C175.4 392.448 174.518 391.878 173.898 391.143C173.299 390.403 172.885 389.458 172.657 388.306C172.229 386.155 172.683 384.292 174.019 382.716C175.354 381.141 177.38 380.083 180.096 379.543C181.009 379.362 181.963 379.274 182.958 379.279C183.97 379.259 184.98 379.34 185.988 379.524C186.991 379.686 187.955 379.935 188.88 380.27L187.297 385.26L186.483 385.422L180.655 380.821L184.86 379.985L185.462 383.186C184.928 382.547 184.208 382.103 183.3 381.854C182.392 381.605 181.417 381.584 180.374 381.792C179.287 382.008 178.448 382.446 177.857 383.105C177.282 383.739 177.075 384.458 177.235 385.262C177.408 386.131 177.978 386.785 178.947 387.225C179.933 387.639 181.509 387.958 183.677 388.182C185.497 388.363 186.981 388.666 188.127 389.093C189.269 389.499 190.14 390.071 190.739 390.811C191.355 391.524 191.779 392.467 192.013 393.64C192.324 395.205 192.202 396.641 191.649 397.948C191.117 399.251 190.197 400.36 188.888 401.275C187.601 402.186 185.991 402.833 184.057 403.218ZM204.46 399.162C203.417 399.369 202.376 399.475 201.337 399.478C200.303 399.503 199.272 399.425 198.242 399.246C197.213 399.067 196.224 398.811 195.278 398.48L196.555 393.314L197.369 393.152L203.34 397.962L199.331 398.759L198.703 395.597C199.184 396.202 199.955 396.613 201.015 396.831C202.07 397.028 203.206 397.006 204.423 396.764C205.727 396.505 206.67 396.023 207.253 395.32C207.854 394.591 208.048 393.694 207.836 392.629C207.659 391.739 207.078 391.086 206.092 390.672C205.128 390.254 203.562 389.933 201.394 389.709C199.592 389.502 198.108 389.199 196.944 388.798C195.802 388.392 194.921 387.822 194.3 387.087C193.702 386.348 193.288 385.402 193.059 384.251C192.631 382.1 193.085 380.236 194.421 378.661C195.757 377.085 197.783 376.027 200.499 375.487C201.411 375.306 202.365 375.218 203.36 375.224C204.372 375.203 205.382 375.285 206.39 375.468C207.394 375.63 208.358 375.879 209.283 376.215L207.7 381.205L206.885 381.367L201.058 376.765L205.262 375.93L205.865 379.13C205.331 378.491 204.61 378.047 203.702 377.798C202.795 377.549 201.819 377.529 200.776 377.736C199.69 377.952 198.851 378.39 198.259 379.05C197.685 379.683 197.478 380.402 197.638 381.206C197.81 382.075 198.381 382.73 199.349 383.17C200.335 383.584 201.912 383.903 204.08 384.127C205.9 384.307 207.383 384.611 208.53 385.038C209.672 385.443 210.542 386.016 211.141 386.755C211.757 387.468 212.182 388.411 212.415 389.585C212.726 391.149 212.605 392.585 212.052 393.892C211.52 395.195 210.6 396.304 209.291 397.219C208.004 398.13 206.393 398.778 204.46 399.162ZM215.986 396.329L215.844 395.612L217.724 392.968L214.406 376.28L211.658 374.557L211.516 373.839L219.566 372.239L223.46 391.828L226.306 393.532L226.449 394.249L215.986 396.329ZM223.578 386.112L218.754 387.071L218.378 385.181L223.267 384.209C224.701 383.924 225.736 383.221 226.372 382.101C227.025 380.955 227.191 379.578 226.872 377.97C226.565 376.427 225.899 375.294 224.875 374.572C223.868 373.824 222.647 373.592 221.213 373.877L216.878 374.739L216.502 372.848L222.923 371.572C224.683 371.222 226.28 371.187 227.713 371.467C229.147 371.746 230.332 372.313 231.27 373.165C232.203 373.996 232.801 375.074 233.065 376.4C233.389 378.03 233.25 379.491 232.649 380.785C232.048 382.079 230.989 383.171 229.471 384.06C227.954 384.949 225.989 385.633 223.578 386.112ZM250.725 389.965C248.269 390.453 246.036 390.412 244.025 389.84C242.01 389.247 240.33 388.181 238.985 386.641C237.64 385.101 236.732 383.147 236.261 380.779C235.777 378.345 235.869 376.136 236.536 374.151C237.203 372.167 238.374 370.5 240.048 369.15C241.722 367.801 243.83 366.874 246.373 366.368C248.85 365.876 251.085 365.929 253.079 366.526C255.09 367.098 256.768 368.153 258.113 369.693C259.453 371.211 260.361 373.165 260.836 375.555C261.316 377.967 261.224 380.176 260.561 382.182C259.894 384.167 258.724 385.834 257.049 387.183C255.375 388.533 253.267 389.46 250.725 389.965ZM250.695 387.6C251.912 387.358 252.885 386.803 253.616 385.935C254.343 385.045 254.792 383.894 254.963 382.482C255.151 381.044 255.058 379.38 254.682 377.49C254.272 375.426 253.659 373.706 252.844 372.333C252.046 370.933 251.1 369.924 250.006 369.305C248.907 368.665 247.706 368.475 246.403 368.734C245.164 368.98 244.179 369.537 243.448 370.406C242.739 371.269 242.29 372.42 242.102 373.858C241.935 375.292 242.039 376.954 242.415 378.844C242.821 380.887 243.423 382.608 244.221 384.008C245.04 385.403 245.999 386.421 247.098 387.061C248.214 387.675 249.413 387.854 250.695 387.6ZM265.13 386.56L264.988 385.843L266.868 383.199L263.551 366.511L260.802 364.787L260.66 364.07L268.71 362.47L272.604 382.059L275.352 383.782L275.495 384.499L265.13 386.56ZM280.677 383.469L272.554 374.479L277.25 371.343L286.688 381.834L282.749 378.382L287.51 381.366L287.652 382.083L280.677 383.469ZM267.645 376.031L267.295 374.271L272.217 373.293C273.608 373.016 274.64 372.359 275.315 371.322C275.985 370.262 276.182 369.037 275.906 367.647C275.634 366.278 274.994 365.275 273.987 364.64C273.001 364 271.802 363.821 270.39 364.101L266.022 364.97L265.647 363.079L272.067 361.803C275.001 361.22 277.308 361.292 278.988 362.019C280.669 362.747 281.708 364.11 282.105 366.109C282.507 368.13 282.014 369.854 280.626 371.282C279.234 372.688 277.061 373.685 274.106 374.272L273.943 374.305L274.034 374.761L267.645 376.031ZM293.498 380.921L293.356 380.204L295.431 377.521L291.667 358.584L294.188 358.998L284.801 361.711L284.334 359.364L304.444 355.367L304.911 357.714L295.199 358.797L297.403 357.444L301.167 376.381L304.111 378.065L304.254 378.783L293.498 380.921ZM284.757 365.752L283.526 359.051L284.243 358.908L289.125 358.412L289.684 359.859L285.539 365.596L284.757 365.752ZM305.714 361.586L299.69 357.87L299.653 356.319L304.353 354.911L305.103 354.762L306.529 361.424L305.714 361.586Z" fill="white"/>
<path d="M165.889 558.962C165.35 557.222 163.58 556.499 161.378 556.936C159.017 557.406 157.769 558.895 158.096 560.539C158.46 562.369 160.586 562.663 162.172 562.734L164.129 562.869C166.712 562.962 170.031 563.709 170.748 567.178C171.365 570.419 169.267 573.318 164.731 574.22C160.434 575.074 157.301 573.463 156.42 569.999L159.337 569.419C159.94 571.477 161.97 572.121 164.225 571.673C166.665 571.188 168.194 569.588 167.846 567.7C167.488 566.034 165.786 565.655 163.638 565.531L161.236 565.374C157.99 565.137 155.743 563.957 155.21 561.278C154.551 557.963 157.084 555.171 160.957 554.401C164.856 553.626 168.031 555.311 168.727 558.398L165.889 558.962ZM170.661 555.367L170.16 552.847L185.04 549.889L185.541 552.409L179.573 553.595L182.89 570.279L179.972 570.859L176.656 554.175L170.661 555.367ZM191.165 568.634L188.062 569.251L191.141 548.676L194.51 548.007L205.25 565.834L202.146 566.451L199.389 561.733L191.909 563.22L191.165 568.634ZM192.273 560.611L198.055 559.461L193.588 551.83L193.455 551.856L192.273 560.611ZM203.873 546.146L207.427 545.439L216.459 559.112L216.698 559.064L219.814 542.977L223.368 542.27L227.185 561.474L224.4 562.027L221.643 548.155L221.457 548.192L218.586 563.156L216.279 563.614L207.871 550.865L207.712 550.897L210.475 564.796L207.69 565.349L203.873 546.146ZM231.111 560.693L227.294 541.49L234.137 540.13C238.593 539.244 241.327 541.485 242.034 545.039C242.735 548.567 241.071 551.71 236.615 552.596L232.689 553.376L234.029 560.113L231.111 560.693ZM232.194 550.883L235.828 550.161C238.666 549.596 239.516 547.773 239.089 545.625C238.657 543.45 237.179 542.117 234.341 542.681L230.707 543.403L232.194 550.883ZM243.871 538.194L247.426 537.488L256.458 551.161L256.696 551.113L259.812 535.026L263.367 534.319L267.184 553.523L264.399 554.076L261.641 540.204L261.456 540.241L258.585 555.205L256.277 555.663L247.87 542.914L247.711 542.946L250.474 556.844L247.689 557.398L243.871 538.194ZM272.754 552.415L269.651 553.032L272.73 532.458L276.098 531.788L286.839 549.616L283.735 550.233L280.978 545.514L273.498 547.001L272.754 552.415ZM273.861 544.392L279.644 543.243L275.176 535.611L275.044 535.637L273.861 544.392ZM289.279 549.131L285.461 529.927L292.305 528.567C296.761 527.681 299.458 529.737 300.159 533.264C300.673 535.85 299.896 538.045 297.734 539.371L303.522 546.299L300.207 546.958L294.868 540.492L294.683 540.529L290.757 541.31L292.196 548.551L289.279 549.131ZM290.256 538.79L293.89 538.067C296.728 537.503 297.647 536.025 297.215 533.85C296.783 531.675 295.347 530.554 292.509 531.118L288.875 531.84L290.256 538.79ZM306.016 545.804L302.198 526.6L309.227 525.203C313.312 524.391 315.739 526.197 316.303 529.035C316.778 531.422 315.561 532.932 313.874 533.736L313.911 533.922C315.842 533.649 318.243 534.908 318.833 537.879C319.418 540.823 317.845 543.452 313.363 544.343L306.016 545.804ZM312.602 541.903C315.361 541.354 316.232 539.913 315.916 538.321C315.552 536.491 313.798 535.296 311.49 535.754L307.22 536.603L308.438 542.73L312.602 541.903ZM310.639 533.552C312.575 533.167 313.85 531.673 313.486 529.843C313.17 528.252 311.845 527.274 309.537 527.733L305.612 528.513L306.766 534.322L310.639 533.552ZM322.991 542.429L319.174 523.226L322.091 522.646L325.408 539.329L334.081 537.605L334.582 540.125L322.991 542.429ZM337.58 539.529L333.762 520.326L345.804 517.932L346.305 520.452L337.181 522.265L338.335 528.074L346.823 526.387L347.319 528.88L338.831 530.568L339.996 536.429L349.227 534.595L349.728 537.114L337.58 539.529Z" fill="white"/>
<path d="M245.076 510.763C268.593 506.088 283.867 483.235 279.192 459.718C274.518 436.202 251.664 420.927 228.148 425.602C204.631 430.277 189.357 453.13 194.032 476.647C198.706 500.163 221.56 515.437 245.076 510.763Z" stroke="white" stroke-width="1.84615" stroke-linecap="round" stroke-linejoin="round"/>
<path d="M213.343 431.518L218.009 433.915L226.783 433.859L226.299 438.559L221.832 441.172L218.848 449.132L212.569 454.983L202.796 458.307L203.366 462.336L207.266 465.168L208.211 471.08L198.07 466.765L194.005 459.797" stroke="white" stroke-width="1.84615" stroke-linecap="round" stroke-linejoin="round"/>
<path d="M276.23 485.943L271.201 483.815L267.162 478.541L259.636 469.827L258.176 463.443L253.311 461.547L247.08 462.431L236.052 460.034L232.491 450.601L235.927 445.123L244.859 443.347L248.884 446.805L261.621 445.271L269.778 440.156M261.851 432.861L257.801 436.67L250.231 436.793L245.339 435.542L239.795 438.524L235.271 438.157L236.866 431.318L242.047 430.556L247.61 426.176M237.705 511.588L244.993 505.581L252.517 503.548L257.699 501.061L264.56 501.414M205.861 474.691L211.65 465.793L215.695 470.512L225.909 469.211L232.056 475.431L238.07 474.236L237.9 482.056L233.279 488.537L234.064 492.869L229.018 498.554L230.684 505.971L225.336 505.116L221.409 498.493L218.615 483.857L210.778 483.995L206.676 478.788L205.861 474.691Z" stroke="white" stroke-width="1.84615" stroke-linecap="round" stroke-linejoin="round"/>
<circle cx="236.578" cy="468.16" r="50.3077" transform="rotate(-11.2429 236.578 468.16)" stroke="white" stroke-width="2.76923"/>
<g clip-path="url(#clip0_317_330)">
<path d="M336.238 579.072C335.842 579.149 335.678 579.462 335.68 579.79L335.14 585.638C331.33 586.849 327.941 589.117 325.368 592.177C323.484 591.592 321.6 591.002 319.717 590.422C319.368 590.315 319.095 590.383 318.89 590.69C318.686 590.997 318.834 591.361 319.032 591.604L322.756 596.084C320.901 599.638 320.096 603.647 320.434 607.642C318.684 608.563 316.932 609.48 315.186 610.404C314.864 610.574 314.719 610.815 314.792 611.177C314.865 611.538 315.226 611.692 315.539 611.724L321.348 612.259C322.553 616.09 324.825 619.499 327.898 622.086C327.31 623.981 326.716 625.876 326.133 627.77C326.026 628.119 326.094 628.391 326.401 628.595C326.708 628.8 327.072 628.653 327.316 628.455L331.82 624.711C335.373 626.562 339.378 627.365 343.37 627.027C344.291 628.776 345.209 630.529 346.133 632.276C346.303 632.597 346.544 632.743 346.906 632.67C347.268 632.597 347.421 632.236 347.453 631.923L347.988 626.113C351.828 624.905 355.243 622.624 357.828 619.538L363.446 621.284C363.851 621.397 364.106 621.381 364.333 621.046C364.559 620.712 364.453 620.374 364.22 620.143L360.449 615.604C362.293 612.043 363.088 608.03 362.739 604.035L367.93 601.304C368.297 601.098 368.466 600.906 368.389 600.51C368.313 600.113 367.999 599.949 367.671 599.951L361.804 599.41C360.591 595.597 358.321 592.206 355.258 589.631L356.995 584.04C357.109 583.635 357.092 583.379 356.757 583.153C356.379 582.937 356.125 583.075 355.854 583.266L351.344 587.016C347.78 585.16 343.76 584.359 339.757 584.709L337.032 579.532C336.827 579.164 336.635 578.995 336.238 579.072ZM336.793 581.87L340.927 602.667C340.387 602.78 339.883 603.028 339.465 603.388L335.289 599.825L336.793 581.87ZM340.586 586.286C343.824 586.116 347.054 586.756 349.983 588.148L344.127 593.016L340.586 586.286ZM334.977 587.419L334.283 594.944C331.876 594.195 329.47 593.451 327.063 592.703C329.224 590.315 331.943 588.5 334.976 587.419M321.234 592.258L333.761 600.613L333.758 600.63L330 602.607L321.234 592.258ZM346.813 598.029L346.76 598.025L344.798 594.295L355.171 585.525L346.813 598.029ZM354.735 591.314C357.134 593.478 358.958 596.205 360.042 599.249L352.487 598.552L354.735 591.314ZM323.89 597.451L328.732 603.275L322.012 606.811C321.853 603.584 322.498 600.367 323.89 597.451ZM347.565 599.556L365.59 601.065L344.794 605.199C344.68 604.652 344.428 604.144 344.062 603.723L347.565 599.556ZM338.384 606.473L338.39 606.503C338.497 607.038 338.735 607.537 339.084 607.956L335.525 612.116L331.105 611.75L317.558 610.627L338.384 606.473ZM361.175 604.857C361.345 608.092 360.706 611.319 359.316 614.245L354.452 608.393L361.175 604.857ZM323.126 612.422L330.68 613.118C329.925 615.542 329.176 617.966 328.423 620.391C326.023 618.216 324.202 615.477 323.126 612.422ZM343.699 608.365L347.849 611.866L347.479 616.324L346.355 629.904L342.201 609.076C342.765 608.965 343.322 608.701 343.699 608.365ZM353.173 609.066L361.96 619.461L349.388 611.058L353.173 609.066ZM336.349 613.686L338.339 617.467L327.968 626.252L336.349 613.686ZM348.849 616.75L356.14 619.015C353.961 621.426 351.215 623.255 348.15 624.335L348.849 616.75ZM339.006 618.736C340.183 620.975 341.363 623.21 342.539 625.448C339.315 625.607 336.102 624.963 333.188 623.574L339.006 618.736Z" fill="white"/>
</g>
<path d="M89.5399 348.689C89.2417 347.189 90.216 345.731 91.7161 345.433L105.408 342.711C106.864 342.422 108.289 343.331 108.639 344.773L149.45 512.772L175.456 680.893C175.683 682.359 174.714 683.743 173.259 684.032L159.565 686.754C158.065 687.053 156.607 686.078 156.309 684.578L89.5399 348.689Z" fill="url(#paint0_linear_317_330)" fill-opacity="0.23"/>
<defs>
<linearGradient id="paint0_linear_317_330" x1="141.937" y1="512.854" x2="122.925" y2="516.633" gradientUnits="userSpaceOnUse">
<stop stop-color="#2D68B5"/>
<stop offset="0.697115" stop-color="#ADD0FF"/>
<stop offset="1" stop-color="#2D68B5"/>
</linearGradient>
<clipPath id="clip0_317_330">
<rect width="54.4615" height="54.4615" fill="white" transform="translate(309.578 584.467) rotate(-11.2429)"/>
</clipPath>
</defs>
</svg>
